<svg xmlns="http://www.w3.org/2000/svg" width="42" height="46" fill="none"><path fill="#0A4ECB" fill-rule="evenodd" d="M0 15.303v15.395a7.685 7.685 0 0 0 3.842 6.66l13.233 7.624a7.621 7.621 0 0 0 7.59.013l13.369-7.64a7.685 7.685 0 0 0 3.864-6.675V15.32a7.685 7.685 0 0 0-3.864-6.674l-13.37-7.64a7.621 7.621 0 0 0-7.589.012L3.842 8.641A7.685 7.685 0 0 0 0 15.303Zm3.325 15.395V15.302c0-1.554.829-2.99 2.172-3.764l2.982-1.719v26.362l-2.982-1.718a4.344 4.344 0 0 1-2.172-3.765Zm11.805 9.314 3.6 2.074a4.308 4.308 0 0 0 4.29.007l12.01-6.864H14.964a1.666 1.666 0 0 1-1.663-1.67c0-.922.745-1.67 1.663-1.67h23.438c.112-.387.171-.794.171-1.209V18.2h-23.61a1.666 1.666 0 0 1-1.662-1.67c0-.921.745-1.669 1.663-1.669h23.585a4.342 4.342 0 0 0-2.16-3.313l-13.37-7.64a4.308 4.308 0 0 0-4.289.007l-3.6 2.073v7.538a2.999 2.999 0 0 0-2.993 3.005c0 1.66 1.34 3.005 2.993 3.005v11.018a2.999 2.999 0 0 0-2.993 3.005c0 1.66 1.34 3.005 2.993 3.005v3.448Z" clip-rule="evenodd"/></svg>