<svg xmlns="http://www.w3.org/2000/svg" width="260" height="62" fill="none"><path fill="#0A4ECB" fill-rule="evenodd" d="M0 20.625v20.75c0 3.708 1.975 7.133 5.179 8.978l17.835 10.274a10.272 10.272 0 0 0 10.23.018l18.019-10.298a10.358 10.358 0 0 0 5.209-8.996V20.65c0-3.721-1.989-7.155-5.21-8.996L33.244 1.355a10.272 10.272 0 0 0-10.229.018L5.18 11.647A10.358 10.358 0 0 0 0 20.625Zm4.482 20.75v-20.75a5.855 5.855 0 0 1 2.927-5.075l4.02-2.315v35.53l-4.02-2.316a5.855 5.855 0 0 1-2.927-5.074Zm15.91 12.554 4.853 2.795a5.806 5.806 0 0 0 5.781.01l16.189-9.252H20.168a2.246 2.246 0 0 1-2.24-2.25 2.246 2.246 0 0 1 2.24-2.25H51.76c.151-.523.231-1.071.231-1.63V24.53H20.168a2.246 2.246 0 0 1-2.24-2.25 2.246 2.246 0 0 1 2.24-2.25h31.79a5.852 5.852 0 0 0-2.912-4.467L31.026 5.266a5.806 5.806 0 0 0-5.781.01l-4.852 2.795v10.16a4.042 4.042 0 0 0-4.034 4.05 4.042 4.042 0 0 0 4.034 4.05v14.85a4.042 4.042 0 0 0-4.034 4.051 4.042 4.042 0 0 0 4.034 4.05v4.647Z" clip-rule="evenodd"/><path fill="#F04716" d="M76.788 35.504c-1.756 0-3.462-.217-5.115-.65-1.654-.435-2.997-1.013-4.03-1.737l2.014-4.526c.972.641 2.099 1.158 3.38 1.55 1.281.393 2.542.59 3.782.59 2.357 0 3.535-.59 3.535-1.768 0-.62-.341-1.074-1.023-1.364-.662-.31-1.736-.63-3.225-.96-1.632-.352-2.997-.724-4.092-1.117a7.026 7.026 0 0 1-2.822-1.953c-.785-.888-1.178-2.087-1.178-3.596 0-1.322.362-2.51 1.086-3.565.723-1.074 1.798-1.922 3.224-2.542 1.447-.62 3.214-.93 5.302-.93 1.426 0 2.831.166 4.216.496 1.385.31 2.605.775 3.659 1.395l-1.892 4.557c-2.066-1.116-4.072-1.674-6.014-1.674-1.22 0-2.109.186-2.667.558-.558.352-.837.817-.837 1.395 0 .579.33 1.013.992 1.302.662.29 1.726.59 3.194.9 1.653.35 3.017.733 4.092 1.146a6.755 6.755 0 0 1 2.822 1.922c.806.868 1.209 2.057 1.209 3.565 0 1.302-.362 2.48-1.085 3.534-.724 1.054-1.809 1.902-3.256 2.542-1.447.62-3.203.93-5.27.93ZM100.397 13.37c1.964 0 3.669.331 5.116.992 1.447.641 2.563 1.571 3.348 2.79.786 1.199 1.178 2.615 1.178 4.247 0 1.633-.392 3.049-1.178 4.247-.785 1.199-1.901 2.129-3.348 2.79-1.447.641-3.152.961-5.116.961h-3.782v5.673h-6.14v-21.7h9.922Zm-.372 11.191c1.261 0 2.212-.268 2.852-.806.641-.558.961-1.343.961-2.356 0-1.012-.32-1.798-.961-2.356-.64-.558-1.591-.837-2.852-.837h-3.41v6.355h3.41ZM125.52 35.504c-2.294 0-4.361-.485-6.201-1.457-1.819-.971-3.255-2.314-4.31-4.03-1.033-1.715-1.55-3.647-1.55-5.797 0-2.149.517-4.081 1.55-5.797 1.055-1.715 2.491-3.058 4.31-4.03 1.84-.971 3.907-1.457 6.201-1.457 2.294 0 4.351.486 6.17 1.457 1.839.972 3.276 2.315 4.309 4.03 1.054 1.716 1.581 3.648 1.581 5.797 0 2.15-.527 4.082-1.581 5.797-1.033 1.716-2.47 3.059-4.309 4.03-1.819.972-3.876 1.457-6.17 1.457Zm0-5.084c1.095 0 2.087-.258 2.976-.775a5.605 5.605 0 0 0 2.109-2.17c.516-.95.775-2.035.775-3.255 0-1.219-.259-2.294-.775-3.224-.517-.95-1.22-1.684-2.109-2.2-.889-.517-1.881-.776-2.976-.776-1.096 0-2.088.259-2.977.775-.888.517-1.591 1.25-2.108 2.201-.517.93-.775 2.005-.775 3.224 0 1.22.258 2.305.775 3.255a5.61 5.61 0 0 0 2.108 2.17c.889.517 1.881.775 2.977.775ZM151.523 29.304h-3.348v5.766h-6.139v-21.7h9.921c1.964 0 3.669.331 5.116.992 1.447.641 2.563 1.571 3.348 2.79.786 1.199 1.178 2.615 1.178 4.247 0 1.571-.372 2.945-1.116 4.123-.723 1.158-1.767 2.067-3.131 2.728l4.682 6.82h-6.573l-3.938-5.766Zm3.876-7.905c0-1.012-.321-1.798-.961-2.356-.641-.558-1.592-.837-2.853-.837h-3.41v6.355h3.41c1.261 0 2.212-.268 2.853-.806.64-.558.961-1.343.961-2.356ZM170.543 18.237h-6.666V13.37h19.44v4.867h-6.635V35.07h-6.139V18.237ZM197.486 35.504c-2.294 0-4.361-.485-6.201-1.457-1.819-.971-3.255-2.314-4.31-4.03-1.033-1.715-1.55-3.647-1.55-5.797 0-2.149.517-4.081 1.55-5.797 1.055-1.715 2.491-3.058 4.31-4.03 1.84-.971 3.907-1.457 6.201-1.457 2.294 0 4.351.486 6.17 1.457 1.839.972 3.276 2.315 4.309 4.03 1.054 1.716 1.581 3.648 1.581 5.797 0 2.15-.527 4.082-1.581 5.797-1.033 1.716-2.47 3.059-4.309 4.03-1.819.972-3.876 1.457-6.17 1.457Zm0-5.084c1.095 0 2.087-.258 2.976-.775a5.605 5.605 0 0 0 2.109-2.17c.516-.95.775-2.035.775-3.255 0-1.219-.259-2.294-.775-3.224-.517-.95-1.22-1.684-2.109-2.2-.889-.517-1.881-.776-2.976-.776-1.096 0-2.088.259-2.977.775-.888.517-1.591 1.25-2.108 2.201-.517.93-.775 2.005-.775 3.224 0 1.22.258 2.305.775 3.255a5.61 5.61 0 0 0 2.108 2.17c.889.517 1.881.775 2.977.775ZM235.258 13.37l-9.301 21.7h-6.046l-9.27-21.7h6.634l5.891 14.136 6.015-14.136h6.077ZM251.553 30.854h-9.178l-1.705 4.216h-6.263l9.581-21.7h6.045l9.612 21.7h-6.387l-1.705-4.216Zm-1.799-4.526-2.79-6.944-2.79 6.944h5.58Z"/><path fill="#0A4ECB" d="M71.609 49.287c-.6 0-1.144-.133-1.629-.398a2.967 2.967 0 0 1-1.135-1.1 3.13 3.13 0 0 1-.407-1.585c0-.584.136-1.109.407-1.577a2.932 2.932 0 0 1 1.144-1.108 3.335 3.335 0 0 1 1.628-.399c.45 0 .867.075 1.248.225.381.15.705.37.97.659l-.407.407c-.474-.48-1.071-.72-1.793-.72-.48 0-.916.11-1.308.33-.393.22-.702.52-.927.9-.22.382-.33.81-.33 1.283 0 .473.11.9.33 1.282.225.38.534.681.927.9.392.22.828.33 1.308.33.727 0 1.325-.243 1.793-.728l.407.407a2.659 2.659 0 0 1-.979.667c-.381.15-.797.225-1.247.225ZM83.553 43.172v6.063h-.632v-5.509h-3.838v5.51h-.632v-6.064h5.102ZM91.551 49.287c-.6 0-1.146-.133-1.637-.398a3.012 3.012 0 0 1-1.144-1.109 3.082 3.082 0 0 1-.407-1.576c0-.584.136-1.109.407-1.577a2.95 2.95 0 0 1 1.144-1.1 3.327 3.327 0 0 1 1.637-.407c.6 0 1.14.133 1.62.399.485.265.866.635 1.143 1.108.278.468.416.993.416 1.577a3.08 3.08 0 0 1-.416 1.585 2.95 2.95 0 0 1-1.143 1.1c-.48.265-1.02.398-1.62.398Zm0-.571c.48 0 .912-.107 1.3-.32.386-.22.69-.52.909-.902.22-.387.33-.817.33-1.29 0-.474-.11-.901-.33-1.282a2.313 2.313 0 0 0-.91-.901c-.387-.22-.82-.33-1.299-.33-.48 0-.915.11-1.308.33a2.372 2.372 0 0 0-.918.9c-.22.382-.33.81-.33 1.283 0 .473.11.903.33 1.29.225.381.53.682.918.901.393.214.829.32 1.308.32ZM101.822 43.172c.773 0 1.38.185 1.819.554.439.37.658.878.658 1.525 0 .647-.219 1.155-.658 1.524-.439.364-1.046.546-1.819.546h-1.629v1.914h-.641v-6.063h2.27Zm-.018 3.586c.601 0 1.06-.13 1.378-.39.317-.265.476-.638.476-1.117 0-.49-.159-.866-.476-1.126-.318-.266-.777-.399-1.378-.399h-1.611v3.032h1.611ZM112.674 43.726h-2.131v5.51h-.632v-5.51h-2.131v-.554h4.894v.554ZM117.091 43.172h.633v5.024l3.881-5.024h.58v6.063h-.632V44.22l-3.881 5.015h-.581v-6.063ZM131.118 46.108c.422.087.743.257.962.511.22.249.329.575.329.98 0 .525-.187.929-.563 1.212-.369.283-.915.424-1.637.424h-2.686v-6.063h2.521c.647 0 1.152.133 1.516.399.364.265.546.65.546 1.151 0 .341-.087.63-.26.867a1.557 1.557 0 0 1-.728.52Zm-2.962-.19h1.854c.467 0 .826-.095 1.074-.286.254-.19.381-.468.381-.831 0-.364-.127-.642-.381-.832-.248-.19-.607-.286-1.074-.286h-1.854v2.235Zm2.053 2.806c1.045 0 1.568-.39 1.568-1.17 0-.761-.523-1.142-1.568-1.142h-2.053v2.312h2.053ZM142.372 43.172v6.063h-.633v-2.797h-3.794v2.797h-.641v-6.063h.641v2.703h3.794v-2.703h.633ZM150.249 45.337c.716 0 1.262.162 1.637.486.381.323.572.796.572 1.42 0 .653-.202 1.15-.606 1.49-.399.335-.976.502-1.733.502h-2.408v-6.063h.632v2.166h1.906Zm-.147 3.387c.56 0 .984-.124 1.273-.372.295-.248.442-.615.442-1.1 0-.93-.572-1.395-1.715-1.395h-1.759v2.867h1.759Zm3.404-5.552h.633v6.063h-.633v-6.063ZM163.759 48.68v.555h-4.288v-6.063h4.158v.554h-3.517v2.157h3.136v.546h-3.136v2.252h3.647ZM176.042 46.455h-1.386v2.78h-.623v-6.063h.623v2.72h1.386l2.053-2.72h.693l-2.252 2.945 2.382 3.118h-.736l-2.14-2.78ZM185.847 49.287a3.386 3.386 0 0 1-1.638-.398 3.01 3.01 0 0 1-1.143-1.109 3.077 3.077 0 0 1-.407-1.576c0-.584.135-1.109.407-1.577a2.948 2.948 0 0 1 1.143-1.1 3.329 3.329 0 0 1 1.638-.407c.6 0 1.14.133 1.62.399a2.93 2.93 0 0 1 1.143 1.108c.277.468.416.993.416 1.577 0 .583-.139 1.111-.416 1.585a2.948 2.948 0 0 1-1.143 1.1c-.48.265-1.02.398-1.62.398Zm0-.571c.479 0 .912-.107 1.299-.32.387-.22.69-.52.91-.902.219-.387.329-.817.329-1.29 0-.474-.11-.901-.329-1.282a2.317 2.317 0 0 0-.91-.901c-.387-.22-.82-.33-1.299-.33-.48 0-.916.11-1.308.33a2.38 2.38 0 0 0-.919.9 2.527 2.527 0 0 0-.329 1.283c0 .473.11.903.329 1.29.226.381.532.682.919.901.392.214.828.32 1.308.32ZM200.146 43.172v6.063h-.615v-4.85l-2.383 4.08h-.303l-2.382-4.054v4.824h-.615v-6.063h.528l2.634 4.495 2.607-4.495h.529ZM210.583 43.172v6.063h-.632v-5.509h-3.838v5.51h-.632v-6.064h5.102ZM220.584 43.172v6.063h-.632v-5.509h-2.928l-.069 2.027c-.029.838-.099 1.513-.208 2.027-.104.508-.266.89-.485 1.143-.22.249-.511.373-.875.373-.156 0-.318-.02-.485-.06l.052-.572c.098.023.193.034.285.034.254 0 .46-.1.615-.303.162-.202.283-.514.364-.935.081-.428.136-.99.165-1.69l.087-2.598h4.114ZM230.21 48.68v.555h-4.288v-6.063h4.158v.554h-3.517v2.157h3.136v.546h-3.136v2.252h3.647ZM236.934 46.455h-1.386v2.78h-.624v-6.063h.624v2.72h1.386l2.053-2.72h.693l-2.252 2.945 2.382 3.118h-.736l-2.14-2.78ZM246.73 49.287a3.334 3.334 0 0 1-1.629-.398 2.975 2.975 0 0 1-1.135-1.1 3.134 3.134 0 0 1-.407-1.585c0-.584.136-1.109.407-1.577a2.94 2.94 0 0 1 1.144-1.108 3.335 3.335 0 0 1 1.629-.399c.45 0 .866.075 1.247.225.381.15.705.37.97.659l-.407.407c-.473-.48-1.071-.72-1.793-.72-.479 0-.915.11-1.308.33-.393.22-.702.52-.927.9-.22.382-.329.81-.329 1.283 0 .473.109.9.329 1.282.225.38.534.681.927.9.393.22.829.33 1.308.33.728 0 1.325-.243 1.793-.728l.407.407a2.654 2.654 0 0 1-.979.667c-.381.15-.797.225-1.247.225ZM256.11 45.337c.716 0 1.262.162 1.638.486.381.323.571.796.571 1.42 0 .653-.202 1.15-.606 1.49-.398.335-.976.502-1.733.502h-2.408v-6.063h.633v2.166h1.905Zm-.147 3.387c.56 0 .985-.124 1.274-.372.294-.248.441-.615.441-1.1 0-.93-.571-1.395-1.715-1.395h-1.758v2.867h1.758Zm3.405-5.552H260v6.063h-.632v-6.063Z"/></svg>